<?xml version="1.0" standalone="no"?>
<!DOCTYPE svg PUBLIC "-//W3C//DTD SVG 20010904//EN"
 "http://www.w3.org/TR/2001/REC-SVG-20010904/DTD/svg10.dtd">
<svg version="1.0" xmlns="http://www.w3.org/2000/svg"
 width="1998.000000pt" height="1998.000000pt" viewBox="0 0 1998.000000 1998.000000"
 preserveAspectRatio="xMidYMid meet">
<metadata>
Created by potrace 1.11, written by Peter Selinger 2001-2013
</metadata>
<g transform="translate(0.000000,1998.000000) scale(0.100000,-0.100000)"
fill="#000000" stroke="none">
<path d="M0 9990 l0 -4090 2695 0 c1482 0 2695 3 2695 8 0 4 9 66 20 137 11
72 22 144 24 160 3 17 17 107 31 200 14 94 28 184 30 200 10 70 96 635 105
690 5 33 19 125 30 205 11 80 22 156 25 170 2 14 6 41 9 60 5 41 47 320 75
500 11 69 22 145 26 170 3 25 8 56 10 70 2 14 9 57 15 95 6 39 13 82 16 96 5
24 0 29 -60 57 -191 89 -327 247 -376 436 l-19 71 -3 -664 -3 -663 -1598 -1
c-879 0 -1600 2 -1602 5 -6 6 -7 1189 -1 1195 2 3 559 5 1238 5 l1233 0 0 924
0 924 -1237 0 -1238 0 0 63 c-2 332 0 1061 4 1064 2 2 651 4 1443 4 1121 0
1440 2 1440 12 0 7 3 30 7 52 4 22 18 110 31 197 13 86 27 169 29 185 3 15 8
46 11 68 4 22 8 47 10 55 2 8 7 42 11 75 3 33 8 63 10 66 1 3 6 28 9 55 4 27
8 56 10 64 2 8 7 38 11 65 3 28 8 59 10 70 3 11 7 38 10 60 3 22 7 49 9 61 3
12 7 39 10 60 4 21 12 77 20 124 8 47 17 105 21 130 3 25 8 54 10 65 2 18 8
53 19 125 3 14 7 43 10 65 3 22 10 63 15 90 5 28 12 70 15 95 3 25 10 69 15
99 6 30 10 56 10 58 0 2 -1201 3 -2670 3 l-2670 0 0 -4090z"/>
<path d="M5657 14073 c-3 -5 -8 -33 -13 -63 -4 -30 -8 -57 -9 -60 0 -3 -4 -26
-8 -51 -4 -25 -10 -57 -12 -70 -2 -13 -11 -67 -19 -119 -9 -52 -18 -106 -20
-120 -14 -76 -180 -1098 -212 -1305 -9 -55 -18 -113 -21 -130 -10 -59 -10 -75
-2 -75 5 0 9 -378 9 -846 l0 -845 154 -192 c222 -275 211 -263 227 -250 8 6
42 21 76 32 284 96 606 -13 774 -261 262 -385 65 -920 -381 -1034 -55 -14 -72
-23 -75 -39 -6 -29 -24 -133 -30 -180 -6 -45 -13 -90 -19 -120 -2 -11 -7 -42
-10 -70 -4 -27 -9 -57 -11 -65 -2 -8 -6 -35 -9 -60 -3 -25 -8 -54 -10 -65 -2
-11 -7 -45 -12 -75 -4 -30 -8 -57 -9 -60 -2 -8 -17 -102 -21 -132 -2 -16 -6
-42 -8 -59 -3 -17 -7 -42 -10 -57 -3 -15 -8 -45 -11 -67 -3 -22 -19 -125 -36
-230 -16 -104 -40 -262 -54 -350 -14 -88 -26 -169 -29 -180 -2 -11 -7 -42 -10
-70 -4 -27 -14 -93 -22 -145 -9 -52 -17 -106 -19 -120 -2 -14 -13 -83 -24
-155 -12 -71 -23 -143 -26 -160 -7 -55 -16 -110 -20 -130 -2 -11 -7 -42 -10
-70 -4 -27 -10 -64 -15 -82 -4 -17 -5 -34 -2 -37 3 -3 398 -6 879 -6 l873 0 1
23 c2 85 -3 3522 -6 3839 -4 370 -3 396 13 391 23 -9 25 -13 154 -215 62 -98
125 -197 140 -220 15 -24 42 -67 60 -96 18 -28 80 -126 138 -217 58 -91 116
-183 130 -205 44 -71 312 -492 365 -575 72 -112 265 -416 295 -465 14 -22 160
-253 325 -512 165 -260 336 -529 380 -599 70 -110 457 -720 660 -1039 l70
-110 1167 0 1166 0 6 28 c3 15 8 50 12 77 4 28 8 57 9 65 3 15 12 78 21 133 7
49 14 92 19 117 2 14 7 45 10 70 5 39 14 99 39 270 3 19 17 109 31 200 14 91
27 181 30 200 3 19 10 62 15 95 12 82 19 129 30 205 5 36 17 110 25 165 8 55
18 118 20 140 3 22 9 65 15 95 5 30 12 75 15 100 4 25 12 86 20 135 8 50 17
108 20 130 3 23 7 50 9 60 2 11 7 43 10 70 4 28 11 75 16 105 5 30 12 73 15
95 2 22 7 49 9 60 2 11 7 43 10 70 4 28 9 64 12 80 7 37 9 51 29 195 8 63 20
138 25 165 5 28 11 68 14 90 3 22 8 57 11 77 6 35 2 42 -61 115 -37 43 -70 80
-73 83 -4 3 -31 34 -61 70 -30 36 -67 78 -82 95 -34 39 -59 67 -116 134 -26
30 -60 68 -75 85 -16 17 -58 66 -94 109 -36 42 -68 77 -69 77 -2 0 -39 -12
-81 -27 -69 -24 -93 -27 -203 -27 -103 0 -137 4 -194 23 -197 64 -330 178
-416 356 -113 234 -89 494 65 701 98 132 268 238 415 260 65 10 67 12 74 67 8
63 13 102 26 185 6 34 14 90 20 125 5 34 16 107 25 162 21 132 23 142 29 195
3 25 8 54 10 65 3 20 16 101 21 140 2 11 10 65 19 120 8 55 18 116 21 135 2
19 7 49 10 65 11 68 15 92 21 135 3 25 9 70 14 100 6 30 14 87 20 125 16 108
20 136 30 190 5 28 12 70 15 95 3 25 8 56 10 70 2 14 7 45 11 70 3 25 7 54 9
65 2 11 10 67 19 125 24 168 27 182 36 240 5 30 12 73 15 95 4 22 10 67 15
100 5 33 12 78 15 100 3 22 8 46 10 53 4 9 -224 12 -1117 12 l-1121 0 5 -2133
c5 -1839 4 -2134 -9 -2134 -11 0 -108 145 -228 341 -11 18 -87 139 -170 270
-82 130 -157 247 -165 261 -8 14 -85 135 -170 270 -85 135 -162 257 -170 270
-8 14 -82 131 -165 262 -82 130 -159 251 -170 269 -11 19 -56 90 -100 158 -44
69 -87 138 -95 153 -9 16 -29 48 -45 73 -17 25 -32 50 -35 55 -5 9 -47 76
-105 165 -13 19 -166 262 -340 540 -175 278 -332 528 -350 555 -18 28 -83 131
-145 230 -105 168 -128 205 -217 343 l-33 52 -925 0 c-508 0 -926 -3 -928 -7z"/>
<path d="M12769 14058 c0 -13 -2 -30 -4 -38 -1 -8 -6 -35 -9 -60 -4 -25 -11
-70 -16 -100 -5 -30 -12 -73 -15 -95 -3 -22 -10 -67 -15 -100 -9 -56 -15 -96
-25 -170 -2 -16 -13 -86 -24 -155 -11 -69 -23 -147 -26 -175 -4 -27 -8 -57
-10 -65 -2 -8 -7 -37 -11 -65 -3 -27 -8 -58 -9 -67 -2 -9 -11 -67 -20 -128 -9
-61 -18 -121 -21 -133 -2 -12 -7 -42 -10 -67 -3 -25 -7 -56 -9 -70 -2 -14 -9
-56 -15 -95 -7 -38 -13 -83 -16 -100 -2 -16 -6 -41 -8 -55 -3 -14 -8 -45 -11
-70 -4 -25 -8 -56 -10 -70 -2 -14 -9 -56 -15 -95 -6 -38 -13 -81 -15 -95 -2
-14 -7 -45 -10 -70 -4 -25 -17 -115 -30 -200 -14 -85 -26 -171 -29 -190 -3
-19 -14 -93 -25 -165 -12 -71 -21 -135 -21 -142 0 -7 33 -29 73 -50 47 -25 98
-64 148 -113 169 -167 234 -379 189 -620 -12 -66 -62 -187 -99 -239 -12 -16
-21 -34 -21 -40 0 -9 88 -119 194 -241 12 -14 64 -77 116 -140 52 -63 97 -117
100 -120 3 -3 72 -85 153 -182 132 -160 147 -181 142 -208 -18 -104 -39 -244
-49 -325 -2 -16 -14 -93 -25 -170 -12 -77 -23 -153 -25 -170 -13 -92 -19 -132
-22 -150 -2 -11 -7 -40 -10 -65 -3 -25 -8 -52 -9 -61 -2 -9 -6 -40 -10 -69 -4
-29 -9 -62 -11 -74 -2 -12 -7 -41 -10 -66 -3 -25 -12 -85 -19 -135 -8 -49 -17
-110 -20 -135 -3 -25 -11 -74 -16 -110 -6 -36 -12 -83 -15 -105 -3 -22 -9 -65
-14 -95 -5 -30 -12 -75 -15 -100 -7 -54 -14 -96 -20 -130 -2 -14 -7 -45 -10
-70 -4 -25 -8 -58 -11 -75 -3 -16 -14 -91 -24 -165 -11 -74 -33 -227 -50 -340
-17 -113 -33 -223 -36 -245 -5 -33 -21 -142 -50 -335 -13 -90 -24 -166 -24
-173 0 -4 1063 -6 2362 -5 l2362 3 8 40 c4 22 16 101 28 175 11 74 25 162 30
195 19 114 55 350 66 425 2 19 7 44 9 56 4 18 24 151 40 259 3 22 10 63 15 90
5 28 14 86 21 130 6 44 12 87 14 95 5 28 16 95 20 125 2 17 6 48 10 70 3 22 8
51 10 65 2 14 11 67 20 118 9 51 18 110 20 130 2 20 20 138 39 262 20 124 38
241 41 260 3 19 9 51 12 70 3 19 7 53 7 74 1 35 -2 40 -29 49 -16 6 -46 20
-67 33 l-36 23 0 -370 c0 -204 -3 -373 -6 -376 -8 -8 -3386 -7 -3394 2 -4 3
-7 274 -7 601 l0 594 40 0 c22 1 579 1 1238 1 l1197 1 1 31 c0 43 0 1755 0
1790 l-1 27 -1238 0 -1237 0 0 565 0 565 55 0 c30 0 658 2 1395 3 l1339 2 8
44 c4 25 10 63 13 85 8 52 13 87 25 156 5 30 12 75 15 100 6 46 32 215 40 260
3 14 9 59 15 101 6 41 12 85 14 96 3 11 7 44 11 74 4 30 8 56 10 59 2 3 6 29
10 59 4 30 9 63 11 75 2 12 6 41 9 66 4 25 10 68 15 95 5 28 12 70 15 95 5 40
19 133 30 200 2 14 7 45 10 70 3 25 8 52 10 60 3 8 7 35 10 59 3 23 7 56 10
72 8 46 13 81 20 127 l6 42 -2381 0 -2380 0 -1 -22z"/>
<path d="M17839 14043 c0 -21 -2 -47 -4 -58 -2 -11 -6 -38 -10 -61 -3 -22 -8
-52 -10 -65 -5 -33 -33 -215 -40 -264 -4 -22 -10 -67 -15 -100 -5 -33 -12 -78
-15 -100 -3 -22 -10 -65 -15 -95 -5 -30 -11 -73 -14 -95 -7 -49 -17 -113 -22
-140 -2 -11 -6 -40 -10 -65 -3 -25 -9 -70 -14 -100 -5 -30 -12 -75 -15 -100
-3 -25 -8 -52 -10 -60 -2 -8 -7 -35 -10 -60 -3 -25 -13 -88 -21 -140 -18 -123
-52 -344 -59 -395 -3 -22 -8 -45 -10 -51 -3 -9 37 -12 142 -13 80 0 148 -3
150 -5 2 -2 4 -515 4 -1140 0 -625 3 -1136 7 -1136 4 0 22 9 40 20 75 46 181
72 299 75 206 5 360 -58 505 -206 199 -203 246 -517 116 -774 -91 -181 -278
-323 -470 -359 -28 -5 -38 -12 -39 -26 -1 -11 -2 -23 -3 -27 -2 -8 -12 -71
-22 -138 -3 -16 -9 -55 -14 -85 -5 -30 -12 -73 -15 -95 -2 -22 -7 -51 -9 -65
-3 -14 -7 -41 -10 -60 -15 -100 -54 -354 -61 -390 -2 -14 -7 -45 -10 -70 -3
-25 -10 -70 -15 -100 -12 -71 -17 -104 -26 -165 -3 -27 -8 -59 -10 -70 -2 -11
-7 -40 -10 -65 -3 -25 -8 -54 -10 -65 -4 -22 -13 -82 -18 -122 -2 -15 -9 -55
-15 -88 -5 -33 -13 -78 -16 -100 -5 -38 -9 -61 -20 -130 -3 -16 -12 -77 -20
-135 -9 -58 -18 -116 -20 -130 -2 -14 -7 -43 -10 -65 -3 -22 -8 -51 -10 -65
-3 -14 -7 -47 -11 -75 -3 -27 -7 -52 -9 -55 -2 -3 -6 -30 -10 -60 -3 -30 -8
-62 -10 -70 -2 -8 -7 -30 -10 -47 -3 -18 -7 -46 -10 -63 l-5 -30 1045 0 1045
0 0 4090 0 4090 -1070 0 -1070 0 -1 -37z"/>
<path d="M12020 10925 c-162 -33 -275 -162 -285 -325 -15 -234 193 -412 429
-366 98 19 196 97 244 195 24 49 27 67 27 151 0 84 -4 101 -28 150 -77 150
-230 228 -387 195z"/>
<path d="M5351 9669 c1 -209 2 -220 14 -169 16 67 44 134 79 189 28 45 28 48
-17 102 -15 19 -39 49 -52 68 l-25 35 1 -225z"/>
<path d="M5913 9676 c-61 -20 -106 -51 -157 -107 -119 -132 -118 -336 1 -469
120 -133 314 -158 462 -59 227 151 206 492 -37 611 -56 28 -79 33 -147 35 -46
2 -97 -3 -122 -11z"/>
<path d="M18110 9564 c-110 -30 -199 -113 -241 -224 -29 -77 -24 -193 12 -270
84 -180 313 -257 488 -166 61 32 127 103 157 169 25 54 29 73 28 152 0 77 -4
98 -28 147 -75 154 -254 237 -416 192z"/>
</g>
</svg>
